<?xml version="1.0" encoding="utf-8"?>
<!-- Generator: Adobe Illustrator 23.1.0, SVG Export Plug-In . SVG Version: 6.00 Build 0)  -->
<svg version="1.1" id="Layer_1" xmlns="http://www.w3.org/2000/svg" xmlns:xlink="http://www.w3.org/1999/xlink" x="0px" y="0px"
	 viewBox="0 0 639.5 128.1" style="enable-background:new 0 0 639.5 128.1;" xml:space="preserve">
<style type="text/css">
	.st0{fill:#231F20;}
</style>
<title>Asset 1</title>
<g>
	<g id="Layer_1-2">
		<path class="st0" d="M103.1,10.2c-30.8,0-55.8,25.3-55.8,56.4s25,56.5,55.8,56.5s55.8-25.3,55.8-56.5S133.9,10.2,103.1,10.2z
			 M103.1,112.7c-19.7,0-35.8-20.6-35.8-45.9s16.1-45.9,35.8-45.9s35.8,20.6,35.8,45.9S122.8,112.7,103.1,112.7z"/>
		<rect x="282.9" y="10.3" class="st0" width="20" height="112.9"/>
		<path class="st0" d="M215,10.5l-23.5-0.1h-20v112.7h43c30.7,0,55.7-25.3,55.7-56.3C270.2,36,245.5,10.8,215,10.5z M214.5,112.7
			h-23V21.1h23c19.7,0,35.7,20.5,35.7,45.8S234.2,112.7,214.5,112.7L214.5,112.7z"/>
		<polygon class="st0" points="562.7,10.3 562.7,123.1 542.7,123.1 542.7,72 497.2,72 497.2,123.1 477.2,123.1 477.2,10.3 
			497.2,10.3 497.2,61.7 542.7,61.7 542.7,10.3 		"/>
		<path class="st0" d="M378.4,82.4c-1.3-3.1-3.1-6-5.4-8.6c-2.5-2.8-5.4-5.2-8.5-7.3c-3.7-2.5-7.5-4.8-11.4-6.9
			c-2.2-1.2-4.3-2.3-6.3-3.5l-4.2-2.3l-0.2-0.1c-0.7-0.4-1.4-0.8-2.1-1.2l-0.3-0.2l0,0c-3.8-2.5-6.8-6-8.7-10.2
			c-1-2.2-1.4-4.6-1.2-7c0-0.1,0-0.1,0-0.2v-0.3c0.1-0.5,0.1-1.1,0.3-1.6c0.7-2.8,2.1-5.4,4.3-7.4c2-2,4.5-3.6,7.3-4.5h0
			c0.5-0.2,0.9-0.3,1.4-0.5l0.7-0.2c0.5-0.1,1-0.3,1.5-0.4h0.2c5.3-1,10.7-1.1,16-0.1c5,0.8,9.8,2.5,14.1,5V14.7l-2.1-0.9
			c-5.7-2.4-13-3.6-21.4-3.6c-4.7,0-9.3,0.6-13.8,2c-4.2,1.3-8.1,3.3-11.6,5.9c-3.3,2.6-6,5.8-8,9.5c-2,4-3.1,8.4-3,12.8
			c-0.1,3.4,0.5,6.8,1.6,10c1.1,3.1,2.8,5.9,5,8.3c2.5,2.7,5.2,5,8.2,7.1c3.1,2.1,7,4.5,11.4,6.9c3.8,2.1,7.2,4.1,10.2,5.9
			c5.6,2.8,9.9,7.2,11.9,12c1,2.2,1.4,4.7,1.2,7.1c0,0,0,0.1,0,0.1V98c-0.1,0.5-0.1,1.1-0.3,1.6c-0.6,2.6-1.9,4.9-3.7,6.8
			c-1.1,1.2-2.4,2.3-3.8,3.1c-4.4,2.6-9.4,3.9-14.4,3.6c-3.1,0.1-6.3-0.1-9.4-0.7c-7.5-1.3-13.9-4.2-18.4-7.9V116l1.6,1
			c1.8,1.1,3.7,2,5.8,2.6c2.2,0.7,4.5,1.4,6.9,1.9c2.3,0.5,4.7,0.9,7.1,1.2c6.9,0.9,13.9,0.4,20.6-1.4c4.2-1.1,8.2-3,11.8-5.6
			c3.4-2.6,6.2-5.9,8-9.7c2-4.2,2.9-8.7,2.8-13.4C380.3,89.1,379.7,85.6,378.4,82.4z"/>
		<polygon class="st0" points="464.5,112.8 412.8,112.8 412.8,72 455.6,72 455.6,61.6 412.8,61.6 412.8,21 464.5,21 464.5,10.3 
			412.8,10.3 392.7,10.2 392.7,123.2 410.3,123.2 410.3,123.2 464.5,123.2 		"/>
	</g>
</g>
</svg>
